<svg width="20" height="20" viewBox="0 0 20 20" fill="none" xmlns="http://www.w3.org/2000/svg">
<path d="M10.833 10.0003H18.333M18.333 10.0003L15.5555 6.66699M18.333 10.0003L15.5555 13.3337" stroke="#505050" stroke-width="1.25" stroke-linecap="round" stroke-linejoin="round"/>
<path d="M11.667 5.83376V4.31209C11.667 4.08157 11.6191 3.85356 11.5265 3.64246C11.4339 3.43137 11.2985 3.24179 11.1288 3.0857C10.9592 2.92961 10.759 2.81041 10.541 2.73563C10.3229 2.66086 10.0917 2.63213 9.86199 2.65126L3.19533 3.20626C2.7787 3.24096 2.39033 3.43097 2.10724 3.7386C1.82415 4.04623 1.66701 4.44903 1.66699 4.86709V15.1338C1.66701 15.5518 1.82415 15.9546 2.10724 16.2623C2.39033 16.5699 2.7787 16.7599 3.19533 16.7946L9.86199 17.3504C10.0918 17.3696 10.3231 17.3408 10.5412 17.266C10.7593 17.1912 10.9595 17.0719 11.1291 16.9157C11.2988 16.7595 11.4342 16.5698 11.5268 16.3586C11.6193 16.1475 11.6671 15.9194 11.667 15.6888V14.1671" stroke="#505050" stroke-width="1.25" stroke-linecap="round" stroke-linejoin="round"/>
</svg>
