<svg width="463" height="373" viewBox="0 0 463 373" fill="none" xmlns="http://www.w3.org/2000/svg">
<g clip-path="url(#clip0_535_267)">
<path d="M263.763 329.984C260.561 325.505 256.227 322.227 250.779 321C246.028 319.931 241.142 320.113 236.313 320.15L175.245 320.621C170.014 320.661 165 325.189 165.243 330.614C165.484 335.995 169.638 340.651 175.245 340.608C193.133 340.47 211.022 340.332 228.91 340.195C233.128 340.162 237.348 340.086 241.565 340.1C242.512 340.103 243.455 340.153 244.402 340.164C244.631 340.166 244.796 340.164 244.913 340.159C244.943 340.168 244.967 340.176 245.005 340.187C245.499 340.322 246.005 340.416 246.502 340.544C246.328 340.549 246.824 340.859 247.073 340.963C247.107 341.031 247.18 341.15 247.302 341.335C247.472 341.654 247.975 342.621 247.996 342.59C248.752 344.501 249.376 346.461 249.863 348.457C251.025 352.859 251.281 353.779 251.448 357.909C251.66 363.126 255.897 368.151 261.45 367.903C266.687 367.668 271.678 363.504 271.451 357.909C271.069 348.481 269.413 337.89 263.763 329.984Z" fill="#E6E6E6"/>
<path d="M178.835 352.536C177.688 345.591 176.563 338.641 175.393 331.7C174.207 324.658 171.784 318.209 166.299 313.588C164.834 312.353 163.314 311.2 161.789 310.051C161.252 309.647 160.716 309.242 160.186 308.829C160.154 308.804 160.134 308.789 160.107 308.767C160.048 308.717 159.979 308.658 159.885 308.578C157.599 306.645 155.39 304.626 153.286 302.48C151.418 300.574 149.631 298.587 147.926 296.518C147.5 296.002 147.079 295.48 146.664 294.955C146.593 294.864 146.208 294.367 145.955 294.043C145.719 293.719 145.289 293.133 145.216 293.031C144.731 292.346 144.255 291.654 143.787 290.956C140.602 286.187 137.843 281.147 135.544 275.893C135.316 275.372 135.093 274.848 134.876 274.321C134.818 274.16 134.742 273.954 134.642 273.679C134.179 272.405 133.717 271.134 133.293 269.846C132.393 267.109 131.619 264.333 130.971 261.516C130.651 260.125 130.363 258.727 130.107 257.322C129.974 256.599 129.851 255.875 129.736 255.149C129.717 255.029 129.605 254.246 129.538 253.804C129.489 253.359 129.399 252.572 129.386 252.451C129.313 251.719 129.248 250.987 129.191 250.254C129.063 248.605 128.977 246.954 128.932 245.299C128.855 242.359 128.908 239.418 129.09 236.478C129.194 234.827 129.341 233.179 129.523 231.535C129.534 231.434 129.543 231.353 129.551 231.281C129.562 231.207 129.575 231.124 129.59 231.02C129.725 230.111 129.866 229.204 130.025 228.299C130.624 224.864 131.405 221.463 132.362 218.109C132.815 216.524 133.308 214.951 133.839 213.39C134.076 212.698 134.32 212.008 134.572 211.321C134.556 211.365 135.311 209.437 135.321 209.372C138.319 202.296 143.221 195.845 143.228 187.807C143.232 182.364 138.624 177.151 133.226 177.402C130.535 177.504 127.988 178.645 126.122 180.586C124.256 182.527 123.217 185.115 123.224 187.807C123.224 187.929 123.224 188.033 123.224 188.134C123.173 188.304 123.131 188.445 123.093 188.57C122.509 189.839 121.793 191.045 121.151 192.283C119.394 195.671 117.895 199.169 116.47 202.719C114.138 208.5 112.353 214.487 111.138 220.601C108.498 233.996 108.293 247.757 110.533 261.225C114.411 284.843 127.2 307.452 144.979 322.649C146.521 323.967 148.102 325.242 149.697 326.491C150.358 327.007 151.023 327.514 151.692 328.018C152.009 328.256 153.319 329.289 152.742 328.789C153.982 329.845 154.503 330.377 154.822 331.155C154.868 331.335 154.93 331.579 155.016 331.912C155.24 332.79 155.453 333.665 155.63 334.556C157.178 342.333 158.253 350.24 159.546 358.068C160.434 363.446 167.061 366.947 171.849 365.335C177.423 363.458 179.787 358.299 178.835 352.536Z" fill="#E6E6E6"/>
<path d="M264.775 372.708C260.574 372.719 256.541 371.065 253.56 368.108C250.578 365.152 248.893 361.134 248.872 356.937V345.537C236.927 346.873 196.024 346.563 184.299 344.681V356.481C184.267 360.675 182.578 364.686 179.599 367.64C176.62 370.595 172.593 372.252 168.396 372.252C164.199 372.252 160.172 370.595 157.193 367.64C154.214 364.686 152.525 360.675 152.493 356.481V333.313C136.613 324.498 123.374 311.608 114.144 295.974C104.913 280.34 100.025 262.528 99.9844 244.376C99.9844 213.252 114.101 184.218 138.715 164.718C154.719 151.996 174.163 144.346 194.551 142.748C197.318 142.532 200.103 142.422 202.827 142.422C212.423 142.422 255.722 143.903 266.586 147.026L291.358 122.465C291.722 122.1 292.187 121.85 292.693 121.749C293.2 121.648 293.725 121.701 294.202 121.899C294.682 122.09 295.094 122.422 295.382 122.851C295.67 123.279 295.822 123.785 295.817 124.302V128.207L300.641 123.434C301.004 123.067 301.469 122.817 301.975 122.716C302.482 122.615 303.006 122.668 303.483 122.866C303.964 123.057 304.375 123.389 304.664 123.818C304.953 124.247 305.105 124.753 305.1 125.27V168.908C317.53 180.105 327.004 194.193 332.682 209.923C338.36 225.653 340.067 242.54 337.652 259.087C335.236 275.634 328.773 291.331 318.835 304.785C308.897 318.239 295.79 329.036 280.677 336.219V356.937C280.657 361.134 278.971 365.152 275.99 368.108C273.008 371.065 268.975 372.719 264.775 372.708ZM250.122 344.12V356.937C250.154 360.799 251.711 364.493 254.456 367.213C257.2 369.933 260.909 371.459 264.775 371.459C268.64 371.459 272.349 369.933 275.093 367.213C277.838 364.493 279.396 360.799 279.427 356.937V335.43L279.784 335.261C296.742 327.22 311.137 314.641 321.373 298.92C334.415 278.859 339.84 254.794 336.664 231.083C333.488 207.372 321.921 185.58 304.058 169.651L303.85 169.465V125.27C303.855 125.001 303.777 124.738 303.627 124.515C303.477 124.292 303.262 124.121 303.011 124.023C302.762 123.917 302.487 123.888 302.221 123.941C301.956 123.994 301.712 124.125 301.523 124.319L294.567 131.202V124.302C294.572 124.033 294.494 123.77 294.344 123.547C294.194 123.324 293.979 123.152 293.728 123.055C293.479 122.949 293.203 122.921 292.937 122.974C292.671 123.027 292.427 123.159 292.237 123.353L266.935 148.439L266.576 148.327C256.477 145.168 212.496 143.671 202.827 143.671C200.135 143.671 197.384 143.78 194.649 143.994C174.509 145.572 155.301 153.129 139.492 165.697C115.179 184.958 101.234 213.636 101.234 244.376C101.276 262.368 106.138 280.02 115.315 295.498C124.492 310.977 137.65 323.719 153.421 332.399L153.743 332.578V356.481C153.776 360.343 155.334 364.036 158.078 366.755C160.822 369.474 164.531 371 168.396 371C172.261 371 175.97 369.474 178.714 366.755C181.458 364.036 183.016 360.343 183.049 356.481V343.186L183.789 343.325C194.326 345.306 238.693 345.618 249.416 344.213L250.122 344.12Z" fill="#3F3D56"/>
<path d="M180.029 74.4013L110.805 95.1882C108.603 95.852 106.755 97.362 105.667 99.3864C104.579 101.411 104.339 103.784 105.001 105.985C105.663 108.186 107.172 110.034 109.197 111.124C111.222 112.213 113.596 112.455 115.8 111.797L176.378 93.6017L177.648 93.2206C177.904 86.6863 179.678 80.3013 182.83 74.5699C182.434 74.3921 182.012 74.2823 181.579 74.2451C181.057 74.1946 180.531 74.2477 180.029 74.4013Z" fill="#73BA97"/>
<path d="M114.603 116.229C113.684 116.227 112.789 115.936 112.044 115.398C111.3 114.86 110.743 114.101 110.453 113.23L106.125 100.178C105.944 99.6333 105.872 99.058 105.914 98.4853C105.956 97.9126 106.11 97.3537 106.368 96.8406C106.626 96.3275 106.982 95.8701 107.417 95.4947C107.852 95.1193 108.357 94.8332 108.902 94.6526L165.244 75.9955C165.789 75.8149 166.365 75.7433 166.938 75.785C167.511 75.8266 168.07 75.9806 168.584 76.2383C169.097 76.4959 169.555 76.8521 169.931 77.2865C170.306 77.7209 170.593 78.225 170.774 78.77L175.102 91.8217C175.463 92.8952 175.39 94.0667 174.901 95.0879C174.412 96.1091 173.544 96.8999 172.481 97.2929C172.429 97.3124 172.377 97.3308 172.324 97.3481L115.983 116.005C115.538 116.153 115.072 116.229 114.603 116.229Z" fill="#2F2E41"/>
<path d="M220.117 51.2227C208.745 51.2271 197.822 55.6525 189.659 63.5623C181.495 71.4721 176.732 82.2455 176.378 93.6023C176.365 94.0457 176.359 94.4955 176.359 94.9452C176.359 103.593 178.926 112.046 183.734 119.236C188.542 126.426 195.376 132.03 203.372 135.34C211.367 138.649 220.165 139.515 228.653 137.828C237.141 136.141 244.938 131.976 251.058 125.862C257.177 119.747 261.345 111.956 263.033 103.475C264.722 94.9937 263.855 86.2025 260.543 78.2133C257.231 70.2241 251.623 63.3955 244.427 58.5912C237.231 53.7869 228.771 51.2227 220.117 51.2227ZM220.117 137.418C208.847 137.407 198.042 132.928 190.073 124.965C182.104 117.003 177.621 106.206 177.61 94.9452C177.61 94.3643 177.622 93.7897 177.647 93.2213C177.986 84.9014 180.764 76.8644 185.637 70.1098C190.511 63.3552 197.263 58.1809 205.056 55.2303C212.849 52.2797 221.337 51.683 229.467 53.5144C237.596 55.3458 245.007 59.5245 250.779 65.5308C256.551 71.5372 260.428 79.1063 261.929 87.2969C263.43 95.4875 262.488 103.938 259.221 111.598C255.953 119.258 250.505 125.79 243.552 130.381C236.6 134.971 228.45 137.419 220.117 137.418Z" fill="#3F3D56"/>
<path d="M256.998 94.9454C256.998 104.719 253.112 114.093 246.196 121.004C239.279 127.915 229.898 131.797 220.117 131.797C210.335 131.797 200.954 127.915 194.038 121.004C187.121 114.093 183.235 104.719 183.235 94.9454C183.235 93.7774 183.292 92.6282 183.398 91.4914C184.287 82.0587 188.777 73.3305 195.937 67.1189C203.096 60.9074 212.375 57.6899 221.847 58.1344C231.318 58.5789 240.255 62.6513 246.8 69.506C253.346 76.3607 256.998 85.4711 256.998 94.9454Z" fill="#E6E6E6"/>
<path d="M231.1 97.3939C230.206 96.2195 229.03 95.2893 227.681 94.6894C226.017 93.9886 224.298 93.4246 222.543 93.0029V82.9717C225.242 83.3784 227.773 84.5316 229.85 86.3009L231.888 81.9599C230.716 80.9165 229.37 80.0858 227.912 79.5052C226.296 78.8512 224.599 78.4164 222.868 78.2122V73.1279H218.148V78.2622C216.326 78.4667 214.568 79.0565 212.991 79.9924C211.567 80.8347 210.368 82.0091 209.497 83.4152C208.665 84.7874 208.234 86.3646 208.253 87.9686C208.171 89.7068 208.675 91.4221 209.684 92.8405C210.613 94.0686 211.839 95.0403 213.247 95.6638C214.938 96.3852 216.686 96.9639 218.473 97.3939V107.007C215.288 106.767 212.253 105.557 209.778 103.54L207.74 107.887C209.124 109.031 210.698 109.923 212.391 110.523C214.246 111.186 216.183 111.59 218.148 111.722V116.763H222.868V111.629C225.489 111.343 227.947 110.216 229.875 108.418C230.724 107.605 231.395 106.624 231.844 105.538C232.294 104.452 232.513 103.285 232.488 102.11C232.566 100.427 232.078 98.7665 231.1 97.3939ZM218.473 91.9411C217.324 91.5927 216.255 91.0195 215.329 90.2547C214.962 89.9285 214.672 89.5253 214.48 89.0739C214.287 88.6225 214.197 88.1341 214.216 87.6438C214.182 86.5313 214.591 85.4508 215.354 84.6395C216.199 83.7882 217.29 83.2226 218.473 83.0217V91.9411ZM225.506 105.233C224.708 106.05 223.67 106.591 222.543 106.776V98.5057C223.62 98.7946 224.628 99.2981 225.506 99.986C225.838 100.27 226.103 100.625 226.279 101.025C226.456 101.425 226.539 101.86 226.525 102.297C226.568 103.369 226.204 104.418 225.506 105.233Z" fill="#73BA97"/>
<path d="M116.611 169.126C115.645 169.125 114.706 168.804 113.94 168.215C113.174 167.626 112.625 166.801 112.376 165.868L110.019 156.955C109.724 155.835 109.886 154.643 110.469 153.642C111.052 152.641 112.009 151.911 113.129 151.614L187.48 131.983C188.601 131.69 189.794 131.854 190.795 132.437C191.797 133.021 192.527 133.977 192.825 135.097L194.821 142.648L194.447 142.677C175.379 144.159 157.134 151.067 141.871 162.584L141.763 162.636L117.721 168.982C117.359 169.078 116.986 169.126 116.611 169.126Z" fill="#2F2E41"/>
<path d="M104.298 213.152C95.5761 211.865 87.2348 208.714 79.8424 203.913C76.18 201.537 72.7896 198.766 69.732 195.651C66.714 192.575 63.8269 189.079 62.3321 184.983C60.8939 181.193 60.968 176.996 62.5391 173.259C64.0889 169.546 67.0492 166.597 70.771 165.061C74.5151 163.569 79.0388 163.41 82.6827 165.043C84.419 165.804 85.9216 167.012 87.0361 168.545C87.5541 169.251 87.9377 170.047 88.1677 170.892C88.3811 171.658 88.4005 172.465 88.2242 173.24C88.0105 174.014 87.6337 174.734 87.119 175.35C86.6043 175.967 85.9637 176.466 85.24 176.815C83.6474 177.631 81.9217 178.157 80.1441 178.368C78.3562 178.611 75.7879 178.833 74.3506 177.399C74.0548 177.115 73.822 176.773 73.6676 176.393C73.5596 176.102 73.5226 175.79 73.5599 175.482C73.5389 175.618 73.6466 175.187 73.6405 175.204C73.6177 175.268 73.5193 175.423 73.6592 175.185C73.7029 175.106 73.7516 175.03 73.8049 174.958C73.7574 175.019 73.6531 175.122 73.8394 174.946C73.9934 174.778 74.1913 174.656 74.4109 174.594C74.4974 174.568 74.5852 174.548 74.672 174.525C74.8925 174.464 74.4522 174.528 74.6778 174.521C74.7648 174.518 74.8529 174.52 74.9397 174.516C75.161 174.506 74.7214 174.456 74.9335 174.509C75.0158 174.53 75.0974 174.55 75.1785 174.576C75.3548 174.631 75.0536 174.446 75.1731 174.585C75.3132 174.747 75.0261 174.427 75.1853 174.584C75.2645 174.662 75.3391 174.744 75.4088 174.83C75.6849 175.102 76.0571 175.255 76.445 175.255C76.8328 175.255 77.2051 175.102 77.4811 174.83C77.7477 174.551 77.8965 174.181 77.8965 173.795C77.8965 173.409 77.7477 173.038 77.4811 172.76C76.0362 170.97 73.1822 171.412 71.7206 172.925C69.8565 174.854 70.5947 177.911 72.4079 179.594C74.4605 181.5 77.3677 181.632 80.0081 181.313C82.2396 181.099 84.4142 180.485 86.4274 179.5C88.4278 178.518 89.9924 176.829 90.8182 174.76C91.191 173.656 91.3249 172.486 91.211 171.326C91.0972 170.167 90.7382 169.045 90.1578 168.034C87.8266 163.655 82.9994 161.41 78.2281 161.021C75.7715 160.828 73.3012 161.125 70.9601 161.893C68.619 162.661 66.4535 163.885 64.589 165.495C60.9953 168.727 58.7824 173.217 58.4078 178.034C57.9914 183.028 59.9307 187.878 62.7581 191.909C65.7181 196.004 69.2503 199.654 73.247 202.748C81.0605 208.981 90.2256 213.3 100.009 215.359C101.173 215.599 102.343 215.805 103.519 215.976C103.893 216.067 104.288 216.011 104.623 215.821C104.958 215.631 105.207 215.321 105.321 214.953C105.422 214.579 105.371 214.18 105.179 213.843C104.988 213.506 104.671 213.258 104.298 213.152Z" fill="#3F3D56"/>
<path d="M243.937 149.52C231.159 149.34 218.42 149.664 205.722 150.492C201.382 150.775 197.627 152.308 197.627 154.884C197.627 157.038 201.352 159.562 205.722 159.277C218.414 158.448 231.152 158.124 243.937 158.304C254.36 158.451 254.354 149.667 243.937 149.52Z" fill="#CCCCCC"/>
<path d="M225.05 157.869C223.669 157.869 191.229 157.818 191.229 153.34C191.229 148.863 223.669 148.812 225.05 148.812C226.431 148.812 258.872 148.863 258.872 153.34C258.872 157.818 226.431 157.869 225.05 157.869ZM192.497 153.34C193.385 154.698 205.309 156.62 225.05 156.62C244.791 156.62 256.716 154.698 257.604 153.34C256.716 151.983 244.791 150.061 225.05 150.061C205.309 150.061 193.385 151.983 192.497 153.34Z" fill="#3F3D56"/>
<path d="M327.976 275.577C335.158 275.377 344.095 275.128 350.981 270.102C353.031 268.545 354.716 266.557 355.917 264.281C357.117 262.004 357.805 259.492 357.932 256.921C358.073 252.952 356.638 249.487 353.891 247.168C350.295 244.132 345.043 243.42 339.384 245.082L345.248 202.266L340.943 201.677L334.05 252.012L337.645 250.364C341.812 248.454 347.532 247.482 351.087 250.484C351.96 251.268 352.64 252.244 353.074 253.334C353.508 254.424 353.685 255.599 353.591 256.769C353.485 258.682 352.969 260.55 352.076 262.246C351.184 263.942 349.936 265.426 348.418 266.596C343.06 270.507 335.936 271.012 327.855 271.238L327.976 275.577Z" fill="#3F3D56"/>
<path d="M316.075 205.959H292.676V210.3H316.075V205.959Z" fill="#3F3D56"/>
<path d="M127.199 189.092C126.158 189.089 125.152 188.715 124.361 188.038C123.57 187.361 123.046 186.424 122.884 185.396L121.455 176.288C121.277 175.143 121.561 173.974 122.244 173.037C122.928 172.1 123.955 171.472 125.101 171.292L201.071 159.398C202.217 159.22 203.388 159.503 204.325 160.186C205.263 160.869 205.891 161.895 206.071 163.04L207.499 172.148C207.678 173.294 207.394 174.463 206.711 175.4C206.027 176.337 205 176.964 203.854 177.145L127.884 189.039C127.658 189.074 127.429 189.092 127.199 189.092Z" fill="#2F2E41"/>
<path d="M95.7593 82.3574C113.366 82.3574 127.64 68.0955 127.64 50.5024C127.64 32.9094 113.366 18.6475 95.7593 18.6475C78.1522 18.6475 63.8789 32.9094 63.8789 50.5024C63.8789 68.0955 78.1522 82.3574 95.7593 82.3574Z" fill="#73BA97"/>
<path d="M113.81 58.7451C114.829 58.3891 115.76 57.8191 116.54 57.0736C117.056 56.5421 117.449 55.9043 117.693 55.2048C117.936 54.5053 118.024 53.7611 117.949 53.0243C117.906 52.4991 117.742 51.9911 117.469 51.5399C117.197 51.0887 116.824 50.7066 116.379 50.4233C115.225 49.7144 113.701 49.7412 112.161 50.4541L111.984 38.0195L110.734 38.0373L110.942 52.6555L111.894 52.0319C112.998 51.3099 114.583 50.7864 115.724 51.4875C116.006 51.6731 116.241 51.9212 116.412 52.2126C116.583 52.5039 116.684 52.8307 116.707 53.1674C116.76 53.7163 116.693 54.2701 116.513 54.7911C116.332 55.312 116.041 55.788 115.659 56.1865C114.304 57.5301 112.298 57.9803 110.009 58.3921L110.23 59.6214C111.447 59.4367 112.645 59.1435 113.81 58.7451Z" fill="#2F2E41"/>
<path d="M124.857 37.1459L118.199 38.1533L118.386 39.3883L125.044 38.3809L124.857 37.1459Z" fill="#2F2E41"/>
<path d="M103.842 40.3256L97.1846 41.333L97.3717 42.568L104.029 41.5605L103.842 40.3256Z" fill="#2F2E41"/>
<path d="M116.827 188.536C115.681 188.533 114.562 188.182 113.621 187.529C112.679 186.875 111.958 185.951 111.555 184.879L89.5744 126.06C86.8878 118.846 87.1747 110.862 90.3722 103.86C93.5696 96.8569 99.4164 91.4075 106.63 88.707L124.503 82.0385C125.194 81.7789 125.929 81.6584 126.667 81.684C127.405 81.7096 128.131 81.8808 128.802 82.1877C129.472 82.4867 130.075 82.9161 130.577 83.4508C131.079 83.9855 131.469 84.6148 131.725 85.3018L172.442 162.118C172.706 162.811 172.831 163.549 172.809 164.29C172.787 165.031 172.618 165.761 172.312 166.436C172.007 167.112 171.571 167.72 171.029 168.227C170.488 168.733 169.851 169.128 169.156 169.388L118.794 188.178C118.165 188.414 117.499 188.535 116.827 188.536Z" fill="#2F2E41"/>
<path d="M119.08 84.0609L159.48 138.043L132.143 84.6276C131.917 84.0043 131.571 83.4316 131.124 82.9422C130.676 82.4527 130.137 82.0561 129.536 81.7751C128.935 81.494 128.285 81.3339 127.622 81.304C126.96 81.2741 126.298 81.3749 125.674 81.6007L119.08 84.0609Z" fill="#E6E6E6"/>
<path d="M183.049 125.057L110.914 120.414C109.777 120.341 108.666 120.045 107.643 119.542C106.621 119.04 105.708 118.341 104.955 117.486C104.203 116.631 103.627 115.636 103.259 114.559C102.892 113.481 102.741 112.342 102.814 111.206C102.887 110.07 103.184 108.959 103.686 107.937C104.189 106.916 104.888 106.003 105.744 105.252C106.6 104.5 107.595 103.924 108.674 103.557C109.752 103.19 110.893 103.039 112.03 103.112L184.164 107.754C184.696 107.788 185.217 107.927 185.696 108.162C186.175 108.398 186.602 108.725 186.955 109.125C187.307 109.526 187.577 109.991 187.749 110.496C187.921 111.001 187.992 111.534 187.958 112.066L187.365 121.266C187.295 122.341 186.802 123.344 185.992 124.055C185.183 124.766 184.124 125.126 183.049 125.057Z" fill="#73BA97"/>
<path d="M163.773 128.034C163.678 128.034 163.582 128.031 163.486 128.025L104.254 124.213C103.68 124.176 103.12 124.026 102.604 123.773C102.088 123.52 101.628 123.167 101.248 122.736C100.869 122.305 100.578 121.803 100.393 121.26C100.208 120.716 100.131 120.142 100.168 119.569L101.181 103.855C101.218 103.282 101.368 102.722 101.621 102.206C101.875 101.691 102.227 101.231 102.659 100.852C103.091 100.473 103.593 100.182 104.137 99.9972C104.681 99.812 105.256 99.7358 105.829 99.7727L165.062 103.585C166.219 103.661 167.3 104.192 168.066 105.063C168.831 105.933 169.22 107.072 169.147 108.229L168.134 123.943C168.079 124.785 167.781 125.593 167.277 126.27C166.773 126.947 166.084 127.464 165.293 127.76C164.807 127.942 164.292 128.034 163.773 128.034Z" fill="#2F2E41"/>
<path d="M95.3935 29.3194C99.5875 25.7152 105.347 28.9394 110.156 28.375C114.758 27.835 118.391 23.7107 119.32 19.3292C120.403 14.2174 117.747 9.09611 113.833 5.909C109.547 2.41833 103.862 1.41624 98.4742 2.06204C92.2996 2.8022 86.6527 5.67811 81.5858 9.15667C76.6949 12.4103 72.1972 16.2185 68.1825 20.5053C64.5874 24.4726 61.5415 29.2015 60.5688 34.54C59.6849 39.3917 60.3599 44.768 63.2302 48.878C64.7523 50.9846 66.792 52.6636 69.1526 53.7532C71.6139 54.9609 74.2394 55.8242 76.624 57.1896C80.2294 59.2542 83.7336 63.5349 82.6042 67.9897C82.3621 68.9628 81.8842 69.8616 81.2127 70.6068C80.4059 71.5017 78.9506 70.3191 79.7596 69.4219C81.1803 67.8459 81.1244 65.7442 80.3672 63.8627C79.4669 61.7425 77.8726 59.9908 75.8455 58.8944C73.3495 57.4685 70.5937 56.5883 68.0355 55.2894C65.5868 54.103 63.4612 52.3429 61.8398 50.159C58.7779 45.9073 57.862 40.374 58.5564 35.2553C59.3079 29.716 62.1562 24.6824 65.7268 20.4643C69.6125 15.8738 74.3857 11.988 79.2618 8.4972C84.494 4.75152 90.2745 1.58481 96.6711 0.439461C102.216 -0.553377 108.226 0.0578767 113.075 3.07714C117.601 5.89542 121.071 10.7434 121.416 16.1606C121.54 18.6254 121.005 21.0787 119.865 23.2679C118.725 25.4572 117.021 27.3034 114.93 28.6166C112.784 29.8996 110.29 30.4771 107.798 30.2676C105.134 30.0972 102.467 29.2821 99.7862 29.5084C98.5731 29.582 97.417 30.0487 96.4931 30.8379C95.5768 31.6253 94.4847 30.1004 95.3935 29.3194Z" fill="#2F2E41"/>
<path d="M462.255 373H0.744103C0.547076 373 0.358317 372.921 0.219199 372.782C0.0800803 372.642 0.00195312 372.453 0.00195312 372.256C0.00195312 372.06 0.0800803 371.871 0.219199 371.731C0.358317 371.592 0.547076 371.513 0.744103 371.513H462.255C462.453 371.513 462.642 371.591 462.782 371.731C462.921 371.87 463 372.059 463 372.256C463 372.454 462.921 372.643 462.782 372.782C462.642 372.922 462.453 373 462.255 373Z" fill="#3F3D56"/>
</g>
<defs>
<clipPath id="clip0_535_267">
<rect width="463" height="373" fill="white"/>
</clipPath>
</defs>
</svg>
